<svg xmlns="http://www.w3.org/2000/svg" width="1600" height="900" viewBox="0 0 1600 900" fill="none">
  <defs>
    <linearGradient id="g1" x1="0" y1="0" x2="1" y2="1">
      <stop offset="0%" stop-color="#6366F1"/>
      <stop offset="100%" stop-color="#06B6D4"/>
    </linearGradient>
    <filter id="blur" x="-20%" y="-20%" width="140%" height="140%">
      <feGaussianBlur stdDeviation="30"/>
    </filter>
  </defs>
  <rect width="1600" height="900" rx="24" fill="#0A0A0F"/>
  <g opacity="0.4" filter="url(#blur)">
    <circle cx="300" cy="200" r="220" fill="url(#g1)"/>
    <circle cx="1300" cy="300" r="260" fill="url(#g1)"/>
  </g>
  <rect x="120" y="120" width="1360" height="660" rx="16" fill="#0F1117" stroke="rgba(255,255,255,0.08)"/>
  <rect x="160" y="180" width="1280" height="60" rx="12" fill="#111827"/>
  <circle cx="190" cy="210" r="8" fill="#EF4444"/>
  <circle cx="214" cy="210" r="8" fill="#F59E0B"/>
  <circle cx="238" cy="210" r="8" fill="#10B981"/>

  <rect x="200" y="280" width="380" height="220" rx="12" fill="#0B1220" stroke="#111827"/>
  <rect x="620" y="280" width="520" height="40" rx="8" fill="#1F2937"/>
  <rect x="620" y="330" width="720" height="14" rx="7" fill="#1F2937"/>
  <rect x="620" y="360" width="680" height="14" rx="7" fill="#1F2937"/>
  <rect x="620" y="390" width="640" height="14" rx="7" fill="#1F2937"/>
  <rect x="620" y="420" width="700" height="14" rx="7" fill="#1F2937"/>

  <rect x="200" y="520" width="1140" height="200" rx="12" fill="#0B1220" stroke="#111827"/>
  <rect x="230" y="550" width="220" height="30" rx="6" fill="#1F2937"/>
  <rect x="230" y="590" width="980" height="12" rx="6" fill="#1F2937"/>
  <rect x="230" y="614" width="940" height="12" rx="6" fill="#1F2937"/>
</svg>